<svg id="Слой_1" data-name="Слой 1" xmlns="http://www.w3.org/2000/svg" viewBox="0 0 514.18 95.94"><path d="M215,239.09H167.27V216.17H265c0,6.61.09,13.27-.11,19.91,0,.92-1.42,1.9-2.33,2.69Q239,259.52,215.35,280.22a23.19,23.19,0,0,1-2.3,1.56l.49.89c1,.06,2,.18,3.06.18,17.26,0,34.53-.08,51.79,0,4.47,0,7-1.33,8.9-5.81,8.07-19.48,16.64-38.75,24.92-58.13.94-2.19,2.06-3.09,4.53-3.06,13,.12,26.05,0,39.07.17,1.33,0,2.63,1.59,3.94,2.46.09.06.06.27.13.38,3.3,5.48,2.87,10-.8,15.86-12.39,19.9-9.32,48.62,10.15,64.46,3.2,2.6,6.89,4.61,10.14,7.61-6.93,0-13.87.16-20.78-.17-1-.05-2.57-2.25-2.84-3.66-.8-4.06-2.72-5.45-7-5.28-9.72.37-19.46.22-29.19.06-2.88,0-4.75.57-5.23,3.64-.72,4.7-3.53,5.57-8,5.55-42.49-.2-85-.12-127.47-.12h-5c0-6.71-.11-13.12.11-19.51,0-1.07,1.38-2.23,2.34-3.1q23.76-21.53,47.58-43a15.19,15.19,0,0,1,1.66-1.14Zm99,35.83h21.9l-10.58-30.86C321.37,254.9,317.77,264.7,314,274.92Z" transform="translate(-163.86 -213.81)"/><path d="M566.92,215.35H571c23.56,0,47.13-.1,70.69.07a84.12,84.12,0,0,1,16.69,1.65c10.4,2.19,16.46,8.61,17.77,18.45,1.41,10.58-1.54,19.52-10.87,25.64-.79.52-1.59,1-3,1.88,9.78,3.65,10.32,11.94,10.75,20,.41,7.76.23,15.56,5,22.94-1.86.13-3.14.29-4.42.29-10.28,0-20.56-.22-30.82.12-4.17.14-5.7-1.43-5.9-5.22q-.3-5.94-.8-11.88c-.64-7.94-3.25-10.39-11.13-10.44-7.25-.05-14.49,0-22.29,0V306H566.92Zm35.9,39.11c7.1,0,13.91.09,20.72,0a41.13,41.13,0,0,0,8.5-1c3.64-.86,5.49-3.54,5.36-7.26s-2.23-6.4-6-6.68c-6.67-.49-13.37-.51-20.06-.68-2.81-.07-5.62,0-8.55,0Z" transform="translate(-163.86 -213.81)"/><path d="M470.24,247h-12.5c-6.85,0-13.71-.18-20.55.07a8.55,8.55,0,0,1-8.12-3.8c-9.36-12.21-31.68-8.07-37.76,6.8a30.71,30.71,0,0,0-1.22,20.13c3.06,11.28,12,17.55,24.47,16.63A50.28,50.28,0,0,0,428,283.69a10.35,10.35,0,0,0,6.8-8.15H420.9V255.79h50.44v51.88c-4.8,0-9.56.18-14.28-.13-1-.07-2.09-1.77-2.83-2.91a51.23,51.23,0,0,1-2.49-4.92c-12.1,9.48-26.32,10-40.64,10-10.3,0-20.45-1.06-30.33-4.32-17.6-5.8-28.42-19.37-29.68-37.9-.88-13,.6-25.61,9.62-35.93,7.86-9,18.27-13.6,29.8-15.8a113.55,113.55,0,0,1,37.19-.86c13,1.82,25.56,5,35,15.11A26.91,26.91,0,0,1,470.24,247Z" transform="translate(-163.86 -213.81)"/><path d="M560.47,306.22H522.79c-.28-.22-.58-.35-.66-.56-3.22-8.38-3.22-8.38-12.44-8.38H480.78v-4.61q0-20.6,0-41.17a46.56,46.56,0,0,0-5.62-22.89c-.7-1.29,0-3.47.36-5.19,1.26-6.89,5.36-8.69,12.21-8.25,10.92.69,21.92.21,32.89.16,2,0,3.54.18,4.47,2.49q17.42,43.44,35,86.81A10.66,10.66,0,0,1,560.47,306.22Zm-59.35-61.5-.89-.1-10.71,29.47h21.71C507.78,264.05,504.45,254.38,501.12,244.72Z" transform="translate(-163.86 -213.81)"/></svg>